<?xml version="1.0" encoding="utf-8" standalone="no"?>
<!DOCTYPE svg PUBLIC "-//W3C//DTD SVG 1.1//EN"
  "http://www.w3.org/Graphics/SVG/1.1/DTD/svg11.dtd">
<!-- Created with matplotlib (https://matplotlib.org/) -->
<svg height="345.6pt" version="1.1" viewBox="0 0 460.8 345.6" width="460.8pt" xmlns="http://www.w3.org/2000/svg" xmlns:xlink="http://www.w3.org/1999/xlink">
 <metadata>
  <rdf:RDF xmlns:cc="http://creativecommons.org/ns#" xmlns:dc="http://purl.org/dc/elements/1.1/" xmlns:rdf="http://www.w3.org/1999/02/22-rdf-syntax-ns#">
   <cc:Work>
    <dc:type rdf:resource="http://purl.org/dc/dcmitype/StillImage"/>
    <dc:date>2022-05-16T12:58:29.452932</dc:date>
    <dc:format>image/svg+xml</dc:format>
    <dc:creator>
     <cc:Agent>
      <dc:title>Matplotlib v3.3.4, https://matplotlib.org/</dc:title>
     </cc:Agent>
    </dc:creator>
   </cc:Work>
  </rdf:RDF>
 </metadata>
 <defs>
  <style type="text/css">*{stroke-linecap:butt;stroke-linejoin:round;}</style>
 </defs>
 <g id="figure_1">
  <g id="patch_1">
   <path d="M 0 345.6 
L 460.8 345.6 
L 460.8 0 
L 0 0 
z
" style="fill:#ffffff;"/>
  </g>
  <g id="axes_1">
   <g id="patch_2">
    <path d="M 57.6 307.584 
L 414.72 307.584 
L 414.72 41.472 
L 57.6 41.472 
z
" style="fill:#ffffff;"/>
   </g>
   <g id="matplotlib.axis_1">
    <g id="xtick_1">
     <g id="line2d_1">
      <defs>
       <path d="M 0 0 
L 0 3.5 
" id="m4ab30fead5" style="stroke:#000000;stroke-width:0.8;"/>
      </defs>
      <g>
       <use style="stroke:#000000;stroke-width:0.8;" x="73.832727" xlink:href="#m4ab30fead5" y="307.584"/>
      </g>
     </g>
     <g id="text_1">
      <!-- 0 -->
      <g transform="translate(70.651477 322.182437)scale(0.1 -0.1)">
       <defs>
        <path d="M 31.78125 66.40625 
Q 24.171875 66.40625 20.328125 58.90625 
Q 16.5 51.421875 16.5 36.375 
Q 16.5 21.390625 20.328125 13.890625 
Q 24.171875 6.390625 31.78125 6.390625 
Q 39.453125 6.390625 43.28125 13.890625 
Q 47.125 21.390625 47.125 36.375 
Q 47.125 51.421875 43.28125 58.90625 
Q 39.453125 66.40625 31.78125 66.40625 
z
M 31.78125 74.21875 
Q 44.046875 74.21875 50.515625 64.515625 
Q 56.984375 54.828125 56.984375 36.375 
Q 56.984375 17.96875 50.515625 8.265625 
Q 44.046875 -1.421875 31.78125 -1.421875 
Q 19.53125 -1.421875 13.0625 8.265625 
Q 6.59375 17.96875 6.59375 36.375 
Q 6.59375 54.828125 13.0625 64.515625 
Q 19.53125 74.21875 31.78125 74.21875 
z
" id="DejaVuSans-48"/>
       </defs>
       <use xlink:href="#DejaVuSans-48"/>
      </g>
     </g>
    </g>
    <g id="xtick_2">
     <g id="line2d_2">
      <g>
       <use style="stroke:#000000;stroke-width:0.8;" x="118.625021" xlink:href="#m4ab30fead5" y="307.584"/>
      </g>
     </g>
     <g id="text_2">
      <!-- 500 -->
      <g transform="translate(109.081271 322.182437)scale(0.1 -0.1)">
       <defs>
        <path d="M 10.796875 72.90625 
L 49.515625 72.90625 
L 49.515625 64.59375 
L 19.828125 64.59375 
L 19.828125 46.734375 
Q 21.96875 47.46875 24.109375 47.828125 
Q 26.265625 48.1875 28.421875 48.1875 
Q 40.625 48.1875 47.75 41.5 
Q 54.890625 34.8125 54.890625 23.390625 
Q 54.890625 11.625 47.5625 5.09375 
Q 40.234375 -1.421875 26.90625 -1.421875 
Q 22.3125 -1.421875 17.546875 -0.640625 
Q 12.796875 0.140625 7.71875 1.703125 
L 7.71875 11.625 
Q 12.109375 9.234375 16.796875 8.0625 
Q 21.484375 6.890625 26.703125 6.890625 
Q 35.15625 6.890625 40.078125 11.328125 
Q 45.015625 15.765625 45.015625 23.390625 
Q 45.015625 31 40.078125 35.4375 
Q 35.15625 39.890625 26.703125 39.890625 
Q 22.75 39.890625 18.8125 39.015625 
Q 14.890625 38.140625 10.796875 36.28125 
z
" id="DejaVuSans-53"/>
       </defs>
       <use xlink:href="#DejaVuSans-53"/>
       <use x="63.623047" xlink:href="#DejaVuSans-48"/>
       <use x="127.246094" xlink:href="#DejaVuSans-48"/>
      </g>
     </g>
    </g>
    <g id="xtick_3">
     <g id="line2d_3">
      <g>
       <use style="stroke:#000000;stroke-width:0.8;" x="163.417315" xlink:href="#m4ab30fead5" y="307.584"/>
      </g>
     </g>
     <g id="text_3">
      <!-- 1000 -->
      <g transform="translate(150.692315 322.182437)scale(0.1 -0.1)">
       <defs>
        <path d="M 12.40625 8.296875 
L 28.515625 8.296875 
L 28.515625 63.921875 
L 10.984375 60.40625 
L 10.984375 69.390625 
L 28.421875 72.90625 
L 38.28125 72.90625 
L 38.28125 8.296875 
L 54.390625 8.296875 
L 54.390625 0 
L 12.40625 0 
z
" id="DejaVuSans-49"/>
       </defs>
       <use xlink:href="#DejaVuSans-49"/>
       <use x="63.623047" xlink:href="#DejaVuSans-48"/>
       <use x="127.246094" xlink:href="#DejaVuSans-48"/>
       <use x="190.869141" xlink:href="#DejaVuSans-48"/>
      </g>
     </g>
    </g>
    <g id="xtick_4">
     <g id="line2d_4">
      <g>
       <use style="stroke:#000000;stroke-width:0.8;" x="208.209609" xlink:href="#m4ab30fead5" y="307.584"/>
      </g>
     </g>
     <g id="text_4">
      <!-- 1500 -->
      <g transform="translate(195.484609 322.182437)scale(0.1 -0.1)">
       <use xlink:href="#DejaVuSans-49"/>
       <use x="63.623047" xlink:href="#DejaVuSans-53"/>
       <use x="127.246094" xlink:href="#DejaVuSans-48"/>
       <use x="190.869141" xlink:href="#DejaVuSans-48"/>
      </g>
     </g>
    </g>
    <g id="xtick_5">
     <g id="line2d_5">
      <g>
       <use style="stroke:#000000;stroke-width:0.8;" x="253.001902" xlink:href="#m4ab30fead5" y="307.584"/>
      </g>
     </g>
     <g id="text_5">
      <!-- 2000 -->
      <g transform="translate(240.276902 322.182437)scale(0.1 -0.1)">
       <defs>
        <path d="M 19.1875 8.296875 
L 53.609375 8.296875 
L 53.609375 0 
L 7.328125 0 
L 7.328125 8.296875 
Q 12.9375 14.109375 22.625 23.890625 
Q 32.328125 33.6875 34.8125 36.53125 
Q 39.546875 41.84375 41.421875 45.53125 
Q 43.3125 49.21875 43.3125 52.78125 
Q 43.3125 58.59375 39.234375 62.25 
Q 35.15625 65.921875 28.609375 65.921875 
Q 23.96875 65.921875 18.8125 64.3125 
Q 13.671875 62.703125 7.8125 59.421875 
L 7.8125 69.390625 
Q 13.765625 71.78125 18.9375 73 
Q 24.125 74.21875 28.421875 74.21875 
Q 39.75 74.21875 46.484375 68.546875 
Q 53.21875 62.890625 53.21875 53.421875 
Q 53.21875 48.921875 51.53125 44.890625 
Q 49.859375 40.875 45.40625 35.40625 
Q 44.1875 33.984375 37.640625 27.21875 
Q 31.109375 20.453125 19.1875 8.296875 
z
" id="DejaVuSans-50"/>
       </defs>
       <use xlink:href="#DejaVuSans-50"/>
       <use x="63.623047" xlink:href="#DejaVuSans-48"/>
       <use x="127.246094" xlink:href="#DejaVuSans-48"/>
       <use x="190.869141" xlink:href="#DejaVuSans-48"/>
      </g>
     </g>
    </g>
    <g id="xtick_6">
     <g id="line2d_6">
      <g>
       <use style="stroke:#000000;stroke-width:0.8;" x="297.794196" xlink:href="#m4ab30fead5" y="307.584"/>
      </g>
     </g>
     <g id="text_6">
      <!-- 2500 -->
      <g transform="translate(285.069196 322.182437)scale(0.1 -0.1)">
       <use xlink:href="#DejaVuSans-50"/>
       <use x="63.623047" xlink:href="#DejaVuSans-53"/>
       <use x="127.246094" xlink:href="#DejaVuSans-48"/>
       <use x="190.869141" xlink:href="#DejaVuSans-48"/>
      </g>
     </g>
    </g>
    <g id="xtick_7">
     <g id="line2d_7">
      <g>
       <use style="stroke:#000000;stroke-width:0.8;" x="342.58649" xlink:href="#m4ab30fead5" y="307.584"/>
      </g>
     </g>
     <g id="text_7">
      <!-- 3000 -->
      <g transform="translate(329.86149 322.182437)scale(0.1 -0.1)">
       <defs>
        <path d="M 40.578125 39.3125 
Q 47.65625 37.796875 51.625 33 
Q 55.609375 28.21875 55.609375 21.1875 
Q 55.609375 10.40625 48.1875 4.484375 
Q 40.765625 -1.421875 27.09375 -1.421875 
Q 22.515625 -1.421875 17.65625 -0.515625 
Q 12.796875 0.390625 7.625 2.203125 
L 7.625 11.71875 
Q 11.71875 9.328125 16.59375 8.109375 
Q 21.484375 6.890625 26.8125 6.890625 
Q 36.078125 6.890625 40.9375 10.546875 
Q 45.796875 14.203125 45.796875 21.1875 
Q 45.796875 27.640625 41.28125 31.265625 
Q 36.765625 34.90625 28.71875 34.90625 
L 20.21875 34.90625 
L 20.21875 43.015625 
L 29.109375 43.015625 
Q 36.375 43.015625 40.234375 45.921875 
Q 44.09375 48.828125 44.09375 54.296875 
Q 44.09375 59.90625 40.109375 62.90625 
Q 36.140625 65.921875 28.71875 65.921875 
Q 24.65625 65.921875 20.015625 65.03125 
Q 15.375 64.15625 9.8125 62.3125 
L 9.8125 71.09375 
Q 15.4375 72.65625 20.34375 73.4375 
Q 25.25 74.21875 29.59375 74.21875 
Q 40.828125 74.21875 47.359375 69.109375 
Q 53.90625 64.015625 53.90625 55.328125 
Q 53.90625 49.265625 50.4375 45.09375 
Q 46.96875 40.921875 40.578125 39.3125 
z
" id="DejaVuSans-51"/>
       </defs>
       <use xlink:href="#DejaVuSans-51"/>
       <use x="63.623047" xlink:href="#DejaVuSans-48"/>
       <use x="127.246094" xlink:href="#DejaVuSans-48"/>
       <use x="190.869141" xlink:href="#DejaVuSans-48"/>
      </g>
     </g>
    </g>
    <g id="xtick_8">
     <g id="line2d_8">
      <g>
       <use style="stroke:#000000;stroke-width:0.8;" x="387.378784" xlink:href="#m4ab30fead5" y="307.584"/>
      </g>
     </g>
     <g id="text_8">
      <!-- 3500 -->
      <g transform="translate(374.653784 322.182437)scale(0.1 -0.1)">
       <use xlink:href="#DejaVuSans-51"/>
       <use x="63.623047" xlink:href="#DejaVuSans-53"/>
       <use x="127.246094" xlink:href="#DejaVuSans-48"/>
       <use x="190.869141" xlink:href="#DejaVuSans-48"/>
      </g>
     </g>
    </g>
    <g id="text_9">
     <!-- num swaps -->
     <g transform="translate(207.826406 335.860562)scale(0.1 -0.1)">
      <defs>
       <path d="M 54.890625 33.015625 
L 54.890625 0 
L 45.90625 0 
L 45.90625 32.71875 
Q 45.90625 40.484375 42.875 44.328125 
Q 39.84375 48.1875 33.796875 48.1875 
Q 26.515625 48.1875 22.3125 43.546875 
Q 18.109375 38.921875 18.109375 30.90625 
L 18.109375 0 
L 9.078125 0 
L 9.078125 54.6875 
L 18.109375 54.6875 
L 18.109375 46.1875 
Q 21.34375 51.125 25.703125 53.5625 
Q 30.078125 56 35.796875 56 
Q 45.21875 56 50.046875 50.171875 
Q 54.890625 44.34375 54.890625 33.015625 
z
" id="DejaVuSans-110"/>
       <path d="M 8.5 21.578125 
L 8.5 54.6875 
L 17.484375 54.6875 
L 17.484375 21.921875 
Q 17.484375 14.15625 20.5 10.265625 
Q 23.53125 6.390625 29.59375 6.390625 
Q 36.859375 6.390625 41.078125 11.03125 
Q 45.3125 15.671875 45.3125 23.6875 
L 45.3125 54.6875 
L 54.296875 54.6875 
L 54.296875 0 
L 45.3125 0 
L 45.3125 8.40625 
Q 42.046875 3.421875 37.71875 1 
Q 33.40625 -1.421875 27.6875 -1.421875 
Q 18.265625 -1.421875 13.375 4.4375 
Q 8.5 10.296875 8.5 21.578125 
z
M 31.109375 56 
z
" id="DejaVuSans-117"/>
       <path d="M 52 44.1875 
Q 55.375 50.25 60.0625 53.125 
Q 64.75 56 71.09375 56 
Q 79.640625 56 84.28125 50.015625 
Q 88.921875 44.046875 88.921875 33.015625 
L 88.921875 0 
L 79.890625 0 
L 79.890625 32.71875 
Q 79.890625 40.578125 77.09375 44.375 
Q 74.3125 48.1875 68.609375 48.1875 
Q 61.625 48.1875 57.5625 43.546875 
Q 53.515625 38.921875 53.515625 30.90625 
L 53.515625 0 
L 44.484375 0 
L 44.484375 32.71875 
Q 44.484375 40.625 41.703125 44.40625 
Q 38.921875 48.1875 33.109375 48.1875 
Q 26.21875 48.1875 22.15625 43.53125 
Q 18.109375 38.875 18.109375 30.90625 
L 18.109375 0 
L 9.078125 0 
L 9.078125 54.6875 
L 18.109375 54.6875 
L 18.109375 46.1875 
Q 21.1875 51.21875 25.484375 53.609375 
Q 29.78125 56 35.6875 56 
Q 41.65625 56 45.828125 52.96875 
Q 50 49.953125 52 44.1875 
z
" id="DejaVuSans-109"/>
       <path id="DejaVuSans-32"/>
       <path d="M 44.28125 53.078125 
L 44.28125 44.578125 
Q 40.484375 46.53125 36.375 47.5 
Q 32.28125 48.484375 27.875 48.484375 
Q 21.1875 48.484375 17.84375 46.4375 
Q 14.5 44.390625 14.5 40.28125 
Q 14.5 37.15625 16.890625 35.375 
Q 19.28125 33.59375 26.515625 31.984375 
L 29.59375 31.296875 
Q 39.15625 29.25 43.1875 25.515625 
Q 47.21875 21.78125 47.21875 15.09375 
Q 47.21875 7.46875 41.1875 3.015625 
Q 35.15625 -1.421875 24.609375 -1.421875 
Q 20.21875 -1.421875 15.453125 -0.5625 
Q 10.6875 0.296875 5.421875 2 
L 5.421875 11.28125 
Q 10.40625 8.6875 15.234375 7.390625 
Q 20.0625 6.109375 24.8125 6.109375 
Q 31.15625 6.109375 34.5625 8.28125 
Q 37.984375 10.453125 37.984375 14.40625 
Q 37.984375 18.0625 35.515625 20.015625 
Q 33.0625 21.96875 24.703125 23.78125 
L 21.578125 24.515625 
Q 13.234375 26.265625 9.515625 29.90625 
Q 5.8125 33.546875 5.8125 39.890625 
Q 5.8125 47.609375 11.28125 51.796875 
Q 16.75 56 26.8125 56 
Q 31.78125 56 36.171875 55.265625 
Q 40.578125 54.546875 44.28125 53.078125 
z
" id="DejaVuSans-115"/>
       <path d="M 4.203125 54.6875 
L 13.1875 54.6875 
L 24.421875 12.015625 
L 35.59375 54.6875 
L 46.1875 54.6875 
L 57.421875 12.015625 
L 68.609375 54.6875 
L 77.59375 54.6875 
L 63.28125 0 
L 52.6875 0 
L 40.921875 44.828125 
L 29.109375 0 
L 18.5 0 
z
" id="DejaVuSans-119"/>
       <path d="M 34.28125 27.484375 
Q 23.390625 27.484375 19.1875 25 
Q 14.984375 22.515625 14.984375 16.5 
Q 14.984375 11.71875 18.140625 8.90625 
Q 21.296875 6.109375 26.703125 6.109375 
Q 34.1875 6.109375 38.703125 11.40625 
Q 43.21875 16.703125 43.21875 25.484375 
L 43.21875 27.484375 
z
M 52.203125 31.203125 
L 52.203125 0 
L 43.21875 0 
L 43.21875 8.296875 
Q 40.140625 3.328125 35.546875 0.953125 
Q 30.953125 -1.421875 24.3125 -1.421875 
Q 15.921875 -1.421875 10.953125 3.296875 
Q 6 8.015625 6 15.921875 
Q 6 25.140625 12.171875 29.828125 
Q 18.359375 34.515625 30.609375 34.515625 
L 43.21875 34.515625 
L 43.21875 35.40625 
Q 43.21875 41.609375 39.140625 45 
Q 35.0625 48.390625 27.6875 48.390625 
Q 23 48.390625 18.546875 47.265625 
Q 14.109375 46.140625 10.015625 43.890625 
L 10.015625 52.203125 
Q 14.9375 54.109375 19.578125 55.046875 
Q 24.21875 56 28.609375 56 
Q 40.484375 56 46.34375 49.84375 
Q 52.203125 43.703125 52.203125 31.203125 
z
" id="DejaVuSans-97"/>
       <path d="M 18.109375 8.203125 
L 18.109375 -20.796875 
L 9.078125 -20.796875 
L 9.078125 54.6875 
L 18.109375 54.6875 
L 18.109375 46.390625 
Q 20.953125 51.265625 25.265625 53.625 
Q 29.59375 56 35.59375 56 
Q 45.5625 56 51.78125 48.09375 
Q 58.015625 40.1875 58.015625 27.296875 
Q 58.015625 14.40625 51.78125 6.484375 
Q 45.5625 -1.421875 35.59375 -1.421875 
Q 29.59375 -1.421875 25.265625 0.953125 
Q 20.953125 3.328125 18.109375 8.203125 
z
M 48.6875 27.296875 
Q 48.6875 37.203125 44.609375 42.84375 
Q 40.53125 48.484375 33.40625 48.484375 
Q 26.265625 48.484375 22.1875 42.84375 
Q 18.109375 37.203125 18.109375 27.296875 
Q 18.109375 17.390625 22.1875 11.75 
Q 26.265625 6.109375 33.40625 6.109375 
Q 40.53125 6.109375 44.609375 11.75 
Q 48.6875 17.390625 48.6875 27.296875 
z
" id="DejaVuSans-112"/>
      </defs>
      <use xlink:href="#DejaVuSans-110"/>
      <use x="63.378906" xlink:href="#DejaVuSans-117"/>
      <use x="126.757812" xlink:href="#DejaVuSans-109"/>
      <use x="224.169922" xlink:href="#DejaVuSans-32"/>
      <use x="255.957031" xlink:href="#DejaVuSans-115"/>
      <use x="308.056641" xlink:href="#DejaVuSans-119"/>
      <use x="389.84375" xlink:href="#DejaVuSans-97"/>
      <use x="451.123047" xlink:href="#DejaVuSans-112"/>
      <use x="514.599609" xlink:href="#DejaVuSans-115"/>
     </g>
    </g>
   </g>
   <g id="matplotlib.axis_2">
    <g id="ytick_1">
     <g id="line2d_9">
      <defs>
       <path d="M 0 0 
L -3.5 0 
" id="m2b8fb7280d" style="stroke:#000000;stroke-width:0.8;"/>
      </defs>
      <g>
       <use style="stroke:#000000;stroke-width:0.8;" x="57.6" xlink:href="#m2b8fb7280d" y="266.4576"/>
      </g>
     </g>
     <g id="text_10">
      <!-- 110 -->
      <g transform="translate(31.5125 270.256819)scale(0.1 -0.1)">
       <use xlink:href="#DejaVuSans-49"/>
       <use x="63.623047" xlink:href="#DejaVuSans-49"/>
       <use x="127.246094" xlink:href="#DejaVuSans-48"/>
      </g>
     </g>
    </g>
    <g id="ytick_2">
     <g id="line2d_10">
      <g>
       <use style="stroke:#000000;stroke-width:0.8;" x="57.6" xlink:href="#m2b8fb7280d" y="218.0736"/>
      </g>
     </g>
     <g id="text_11">
      <!-- 120 -->
      <g transform="translate(31.5125 221.872819)scale(0.1 -0.1)">
       <use xlink:href="#DejaVuSans-49"/>
       <use x="63.623047" xlink:href="#DejaVuSans-50"/>
       <use x="127.246094" xlink:href="#DejaVuSans-48"/>
      </g>
     </g>
    </g>
    <g id="ytick_3">
     <g id="line2d_11">
      <g>
       <use style="stroke:#000000;stroke-width:0.8;" x="57.6" xlink:href="#m2b8fb7280d" y="169.6896"/>
      </g>
     </g>
     <g id="text_12">
      <!-- 130 -->
      <g transform="translate(31.5125 173.488819)scale(0.1 -0.1)">
       <use xlink:href="#DejaVuSans-49"/>
       <use x="63.623047" xlink:href="#DejaVuSans-51"/>
       <use x="127.246094" xlink:href="#DejaVuSans-48"/>
      </g>
     </g>
    </g>
    <g id="ytick_4">
     <g id="line2d_12">
      <g>
       <use style="stroke:#000000;stroke-width:0.8;" x="57.6" xlink:href="#m2b8fb7280d" y="121.3056"/>
      </g>
     </g>
     <g id="text_13">
      <!-- 140 -->
      <g transform="translate(31.5125 125.104819)scale(0.1 -0.1)">
       <defs>
        <path d="M 37.796875 64.3125 
L 12.890625 25.390625 
L 37.796875 25.390625 
z
M 35.203125 72.90625 
L 47.609375 72.90625 
L 47.609375 25.390625 
L 58.015625 25.390625 
L 58.015625 17.1875 
L 47.609375 17.1875 
L 47.609375 0 
L 37.796875 0 
L 37.796875 17.1875 
L 4.890625 17.1875 
L 4.890625 26.703125 
z
" id="DejaVuSans-52"/>
       </defs>
       <use xlink:href="#DejaVuSans-49"/>
       <use x="63.623047" xlink:href="#DejaVuSans-52"/>
       <use x="127.246094" xlink:href="#DejaVuSans-48"/>
      </g>
     </g>
    </g>
    <g id="ytick_5">
     <g id="line2d_13">
      <g>
       <use style="stroke:#000000;stroke-width:0.8;" x="57.6" xlink:href="#m2b8fb7280d" y="72.9216"/>
      </g>
     </g>
     <g id="text_14">
      <!-- 150 -->
      <g transform="translate(31.5125 76.720819)scale(0.1 -0.1)">
       <use xlink:href="#DejaVuSans-49"/>
       <use x="63.623047" xlink:href="#DejaVuSans-53"/>
       <use x="127.246094" xlink:href="#DejaVuSans-48"/>
      </g>
     </g>
    </g>
    <g id="text_15">
     <!-- total cost -->
     <g transform="translate(25.432812 197.923313)rotate(-90)scale(0.1 -0.1)">
      <defs>
       <path d="M 18.3125 70.21875 
L 18.3125 54.6875 
L 36.8125 54.6875 
L 36.8125 47.703125 
L 18.3125 47.703125 
L 18.3125 18.015625 
Q 18.3125 11.328125 20.140625 9.421875 
Q 21.96875 7.515625 27.59375 7.515625 
L 36.8125 7.515625 
L 36.8125 0 
L 27.59375 0 
Q 17.1875 0 13.234375 3.875 
Q 9.28125 7.765625 9.28125 18.015625 
L 9.28125 47.703125 
L 2.6875 47.703125 
L 2.6875 54.6875 
L 9.28125 54.6875 
L 9.28125 70.21875 
z
" id="DejaVuSans-116"/>
       <path d="M 30.609375 48.390625 
Q 23.390625 48.390625 19.1875 42.75 
Q 14.984375 37.109375 14.984375 27.296875 
Q 14.984375 17.484375 19.15625 11.84375 
Q 23.34375 6.203125 30.609375 6.203125 
Q 37.796875 6.203125 41.984375 11.859375 
Q 46.1875 17.53125 46.1875 27.296875 
Q 46.1875 37.015625 41.984375 42.703125 
Q 37.796875 48.390625 30.609375 48.390625 
z
M 30.609375 56 
Q 42.328125 56 49.015625 48.375 
Q 55.71875 40.765625 55.71875 27.296875 
Q 55.71875 13.875 49.015625 6.21875 
Q 42.328125 -1.421875 30.609375 -1.421875 
Q 18.84375 -1.421875 12.171875 6.21875 
Q 5.515625 13.875 5.515625 27.296875 
Q 5.515625 40.765625 12.171875 48.375 
Q 18.84375 56 30.609375 56 
z
" id="DejaVuSans-111"/>
       <path d="M 9.421875 75.984375 
L 18.40625 75.984375 
L 18.40625 0 
L 9.421875 0 
z
" id="DejaVuSans-108"/>
       <path d="M 48.78125 52.59375 
L 48.78125 44.1875 
Q 44.96875 46.296875 41.140625 47.34375 
Q 37.3125 48.390625 33.40625 48.390625 
Q 24.65625 48.390625 19.8125 42.84375 
Q 14.984375 37.3125 14.984375 27.296875 
Q 14.984375 17.28125 19.8125 11.734375 
Q 24.65625 6.203125 33.40625 6.203125 
Q 37.3125 6.203125 41.140625 7.25 
Q 44.96875 8.296875 48.78125 10.40625 
L 48.78125 2.09375 
Q 45.015625 0.34375 40.984375 -0.53125 
Q 36.96875 -1.421875 32.421875 -1.421875 
Q 20.0625 -1.421875 12.78125 6.34375 
Q 5.515625 14.109375 5.515625 27.296875 
Q 5.515625 40.671875 12.859375 48.328125 
Q 20.21875 56 33.015625 56 
Q 37.15625 56 41.109375 55.140625 
Q 45.0625 54.296875 48.78125 52.59375 
z
" id="DejaVuSans-99"/>
      </defs>
      <use xlink:href="#DejaVuSans-116"/>
      <use x="39.208984" xlink:href="#DejaVuSans-111"/>
      <use x="100.390625" xlink:href="#DejaVuSans-116"/>
      <use x="139.599609" xlink:href="#DejaVuSans-97"/>
      <use x="200.878906" xlink:href="#DejaVuSans-108"/>
      <use x="228.662109" xlink:href="#DejaVuSans-32"/>
      <use x="260.449219" xlink:href="#DejaVuSans-99"/>
      <use x="315.429688" xlink:href="#DejaVuSans-111"/>
      <use x="376.611328" xlink:href="#DejaVuSans-115"/>
      <use x="428.710938" xlink:href="#DejaVuSans-116"/>
     </g>
    </g>
   </g>
   <g id="line2d_14">
    <path clip-path="url(#p620aeb616c)" d="M 73.832727 92.2752 
L 74.549404 116.4672 
L 75.266081 92.2752 
L 75.982757 140.6592 
L 76.699434 140.6592 
L 77.416111 179.3664 
L 78.132787 179.3664 
L 78.849464 135.8208 
L 79.566141 155.1744 
L 80.282818 126.144 
L 80.999494 111.6288 
L 81.716171 92.2752 
L 82.432848 130.9824 
L 83.149524 130.9824 
L 83.866201 160.0128 
L 84.582878 169.6896 
L 85.299554 184.2048 
L 86.016231 140.6592 
L 87.449585 101.952 
L 88.166261 155.1744 
L 88.882938 130.9824 
L 89.599615 126.144 
L 90.316291 155.1744 
L 91.032968 130.9824 
L 91.749645 150.336 
L 92.466321 179.3664 
L 93.182998 174.528 
L 93.899675 160.0128 
L 94.616352 155.1744 
L 95.333028 169.6896 
L 96.049705 135.8208 
L 96.766382 135.8208 
L 97.483058 155.1744 
L 98.199735 150.336 
L 98.916412 126.144 
L 99.633089 140.6592 
L 100.349765 174.528 
L 101.066442 169.6896 
L 101.783119 135.8208 
L 102.499795 140.6592 
L 103.216472 160.0128 
L 103.933149 160.0128 
L 104.649825 145.4976 
L 105.366502 150.336 
L 106.083179 111.6288 
L 106.799856 155.1744 
L 107.516532 169.6896 
L 108.233209 121.3056 
L 108.949886 160.0128 
L 109.666562 160.0128 
L 110.383239 184.2048 
L 111.099916 150.336 
L 111.816592 140.6592 
L 112.533269 140.6592 
L 113.249946 169.6896 
L 113.966623 140.6592 
L 114.683299 150.336 
L 115.399976 145.4976 
L 116.116653 150.336 
L 116.833329 160.0128 
L 117.550006 174.528 
L 118.266683 72.9216 
L 118.983359 160.0128 
L 119.700036 164.8512 
L 120.416713 126.144 
L 121.13339 97.1136 
L 121.850066 121.3056 
L 122.566743 97.1136 
L 123.28342 155.1744 
L 124.000096 121.3056 
L 124.716773 140.6592 
L 125.43345 164.8512 
L 126.150126 184.2048 
L 126.866803 179.3664 
L 127.58348 203.5584 
L 128.300157 174.528 
L 129.016833 164.8512 
L 129.73351 126.144 
L 130.450187 169.6896 
L 131.166863 150.336 
L 131.88354 174.528 
L 132.600217 145.4976 
L 133.316893 184.2048 
L 134.03357 155.1744 
L 134.750247 145.4976 
L 135.466924 218.0736 
L 136.1836 174.528 
L 136.900277 145.4976 
L 137.616954 92.2752 
L 138.33363 169.6896 
L 139.050307 160.0128 
L 139.766984 155.1744 
L 140.48366 160.0128 
L 141.200337 179.3664 
L 141.917014 111.6288 
L 142.633691 130.9824 
L 143.350367 140.6592 
L 144.067044 92.2752 
L 144.783721 72.9216 
L 145.500397 111.6288 
L 146.217074 135.8208 
L 146.933751 130.9824 
L 147.650427 179.3664 
L 148.367104 179.3664 
L 149.083781 150.336 
L 149.800458 150.336 
L 150.517134 126.144 
L 151.233811 169.6896 
L 151.950488 135.8208 
L 152.667164 126.144 
L 154.100518 193.8816 
L 154.817194 155.1744 
L 155.533871 160.0128 
L 156.250548 193.8816 
L 156.967225 145.4976 
L 157.683901 169.6896 
L 158.400578 126.144 
L 159.117255 111.6288 
L 159.833931 126.144 
L 160.550608 164.8512 
L 161.267285 174.528 
L 161.983961 150.336 
L 162.700638 179.3664 
L 163.417315 169.6896 
L 164.133992 174.528 
L 164.850668 116.4672 
L 165.567345 116.4672 
L 166.284022 106.7904 
L 167.000698 155.1744 
L 167.717375 164.8512 
L 168.434052 106.7904 
L 169.150728 111.6288 
L 169.867405 164.8512 
L 170.584082 135.8208 
L 171.300759 121.3056 
L 172.017435 140.6592 
L 172.734112 101.952 
L 174.167465 140.6592 
L 174.884142 164.8512 
L 175.600819 160.0128 
L 176.317495 174.528 
L 177.034172 106.7904 
L 177.750849 111.6288 
L 178.467526 92.2752 
L 179.184202 111.6288 
L 179.900879 126.144 
L 180.617556 126.144 
L 182.050909 68.0832 
L 182.767586 106.7904 
L 183.484262 87.4368 
L 184.200939 126.144 
L 184.917616 150.336 
L 185.634293 150.336 
L 186.350969 140.6592 
L 187.067646 87.4368 
L 187.784323 121.3056 
L 188.500999 135.8208 
L 189.217676 121.3056 
L 189.934353 82.5984 
L 190.65103 63.2448 
L 191.367706 63.2448 
L 192.084383 53.568 
L 193.517736 145.4976 
L 194.234413 130.9824 
L 194.95109 92.2752 
L 195.667766 150.336 
L 196.384443 174.528 
L 197.10112 126.144 
L 197.817797 106.7904 
L 198.534473 101.952 
L 199.25115 101.952 
L 199.967827 174.528 
L 200.684503 140.6592 
L 201.40118 135.8208 
L 202.117857 155.1744 
L 202.834533 155.1744 
L 203.55121 126.144 
L 204.267887 140.6592 
L 204.984564 111.6288 
L 205.70124 126.144 
L 206.417917 130.9824 
L 207.134594 92.2752 
L 208.567947 101.952 
L 209.284624 111.6288 
L 210.0013 145.4976 
L 211.434654 155.1744 
L 212.151331 135.8208 
L 212.868007 111.6288 
L 213.584684 92.2752 
L 214.301361 111.6288 
L 215.018037 160.0128 
L 215.734714 145.4976 
L 216.451391 121.3056 
L 217.168067 135.8208 
L 217.884744 135.8208 
L 218.601421 116.4672 
L 219.318098 140.6592 
L 220.034774 135.8208 
L 220.751451 126.144 
L 221.468128 169.6896 
L 222.184804 174.528 
L 222.901481 169.6896 
L 223.618158 155.1744 
L 224.334834 164.8512 
L 225.051511 145.4976 
L 225.768188 145.4976 
L 226.484865 164.8512 
L 227.201541 160.0128 
L 227.918218 160.0128 
L 229.351571 130.9824 
L 230.068248 164.8512 
L 230.784925 135.8208 
L 231.501601 160.0128 
L 232.218278 126.144 
L 232.934955 150.336 
L 233.651632 160.0128 
L 235.084985 160.0128 
L 235.801662 169.6896 
L 236.518338 135.8208 
L 237.235015 126.144 
L 237.951692 160.0128 
L 238.668368 160.0128 
L 239.385045 97.1136 
L 240.101722 116.4672 
L 240.818399 126.144 
L 241.535075 126.144 
L 242.251752 111.6288 
L 242.968429 135.8208 
L 243.685105 164.8512 
L 244.401782 160.0128 
L 245.118459 169.6896 
L 245.835135 164.8512 
L 246.551812 135.8208 
L 247.268489 155.1744 
L 247.985166 121.3056 
L 248.701842 164.8512 
L 249.418519 140.6592 
L 250.135196 189.0432 
L 250.851872 189.0432 
L 251.568549 164.8512 
L 253.001902 193.8816 
L 253.718579 203.5584 
L 254.435256 164.8512 
L 255.868609 184.2048 
L 256.585286 135.8208 
L 257.301963 121.3056 
L 258.018639 111.6288 
L 258.735316 164.8512 
L 259.451993 160.0128 
L 260.168669 150.336 
L 260.885346 145.4976 
L 261.602023 101.952 
L 262.3187 140.6592 
L 263.035376 126.144 
L 263.752053 155.1744 
L 264.46873 174.528 
L 265.185406 150.336 
L 265.902083 164.8512 
L 266.61876 140.6592 
L 267.335436 150.336 
L 268.052113 111.6288 
L 268.76879 179.3664 
L 269.485467 179.3664 
L 270.202143 174.528 
L 270.91882 174.528 
L 271.635497 155.1744 
L 272.352173 150.336 
L 273.06885 169.6896 
L 273.785527 150.336 
L 274.502203 169.6896 
L 275.21888 174.528 
L 275.935557 189.0432 
L 276.652234 222.912 
L 277.36891 155.1744 
L 278.085587 179.3664 
L 278.802264 179.3664 
L 279.51894 193.8816 
L 280.235617 290.6496 
L 280.952294 251.9424 
L 281.66897 256.7808 
L 282.385647 198.72 
L 283.102324 247.104 
L 283.819001 203.5584 
L 284.535677 208.3968 
L 285.252354 208.3968 
L 286.685707 92.2752 
L 287.402384 126.144 
L 288.119061 140.6592 
L 288.835738 145.4976 
L 289.552414 179.3664 
L 290.269091 140.6592 
L 290.985768 164.8512 
L 291.702444 150.336 
L 292.419121 150.336 
L 293.135798 155.1744 
L 293.852474 155.1744 
L 294.569151 203.5584 
L 295.285828 164.8512 
L 296.002505 193.8816 
L 296.719181 213.2352 
L 297.435858 160.0128 
L 298.152535 121.3056 
L 298.869211 126.144 
L 299.585888 174.528 
L 300.302565 213.2352 
L 301.019241 193.8816 
L 301.735918 155.1744 
L 302.452595 140.6592 
L 303.169272 160.0128 
L 303.885948 150.336 
L 304.602625 174.528 
L 305.319302 116.4672 
L 306.035978 140.6592 
L 306.752655 140.6592 
L 307.469332 135.8208 
L 308.186008 169.6896 
L 308.902685 145.4976 
L 309.619362 189.0432 
L 310.336039 160.0128 
L 311.052715 145.4976 
L 311.769392 164.8512 
L 312.486069 169.6896 
L 313.202745 189.0432 
L 313.919422 218.0736 
L 314.636099 218.0736 
L 315.352775 189.0432 
L 316.069452 135.8208 
L 316.786129 160.0128 
L 317.502806 140.6592 
L 318.936159 140.6592 
L 319.652836 169.6896 
L 320.369512 150.336 
L 321.086189 198.72 
L 321.802866 150.336 
L 322.519542 160.0128 
L 323.236219 179.3664 
L 323.952896 222.912 
L 324.669573 208.3968 
L 325.386249 179.3664 
L 326.102926 169.6896 
L 326.819603 179.3664 
L 327.536279 160.0128 
L 328.252956 184.2048 
L 328.969633 160.0128 
L 329.686309 174.528 
L 330.402986 227.7504 
L 331.119663 232.5888 
L 332.553016 184.2048 
L 333.269693 184.2048 
L 333.98637 203.5584 
L 334.703046 130.9824 
L 335.419723 140.6592 
L 336.1364 135.8208 
L 336.853076 174.528 
L 337.569753 189.0432 
L 338.28643 155.1744 
L 339.003107 155.1744 
L 339.719783 150.336 
L 340.43646 160.0128 
L 341.153137 179.3664 
L 341.869813 174.528 
L 342.58649 145.4976 
L 343.303167 126.144 
L 344.019843 130.9824 
L 344.73652 193.8816 
L 345.453197 179.3664 
L 346.169874 160.0128 
L 346.88655 184.2048 
L 347.603227 189.0432 
L 348.319904 232.5888 
L 349.03658 232.5888 
L 349.753257 213.2352 
L 350.469934 266.4576 
L 351.18661 242.2656 
L 351.903287 256.7808 
L 352.619964 198.72 
L 354.053317 150.336 
L 354.769994 198.72 
L 355.486671 174.528 
L 356.203347 203.5584 
L 356.920024 208.3968 
L 357.636701 169.6896 
L 358.353377 189.0432 
L 359.070054 179.3664 
L 359.786731 208.3968 
L 360.503408 198.72 
L 361.220084 203.5584 
L 361.936761 174.528 
L 363.370114 135.8208 
L 364.086791 169.6896 
L 364.803468 213.2352 
L 365.520144 145.4976 
L 366.236821 155.1744 
L 366.953498 203.5584 
L 367.670175 150.336 
L 368.386851 164.8512 
L 369.103528 203.5584 
L 369.820205 208.3968 
L 370.536881 184.2048 
L 371.253558 203.5584 
L 371.970235 198.72 
L 372.686911 169.6896 
L 373.403588 184.2048 
L 374.120265 184.2048 
L 374.836942 198.72 
L 375.553618 193.8816 
L 376.270295 222.912 
L 376.986972 227.7504 
L 377.703648 227.7504 
L 378.420325 198.72 
L 379.137002 179.3664 
L 379.853679 208.3968 
L 380.570355 193.8816 
L 381.287032 208.3968 
L 382.003709 227.7504 
L 382.720385 155.1744 
L 383.437062 227.7504 
L 384.153739 189.0432 
L 384.870415 198.72 
L 385.587092 198.72 
L 386.303769 193.8816 
L 387.020446 213.2352 
L 387.737122 218.0736 
L 388.453799 227.7504 
L 389.170476 213.2352 
L 389.887152 208.3968 
L 390.603829 222.912 
L 391.320506 203.5584 
L 392.037182 237.4272 
L 392.753859 227.7504 
L 393.470536 237.4272 
L 394.187213 261.6192 
L 394.903889 276.1344 
L 395.620566 251.9424 
L 396.337243 280.9728 
L 397.770596 261.6192 
L 398.487273 295.488 
L 398.487273 295.488 
" style="fill:none;stroke:#1f77b4;stroke-linecap:square;stroke-width:1.5;"/>
   </g>
   <g id="patch_3">
    <path d="M 57.6 307.584 
L 57.6 41.472 
" style="fill:none;stroke:#000000;stroke-linecap:square;stroke-linejoin:miter;stroke-width:0.8;"/>
   </g>
   <g id="patch_4">
    <path d="M 414.72 307.584 
L 414.72 41.472 
" style="fill:none;stroke:#000000;stroke-linecap:square;stroke-linejoin:miter;stroke-width:0.8;"/>
   </g>
   <g id="patch_5">
    <path d="M 57.6 307.584 
L 414.72 307.584 
" style="fill:none;stroke:#000000;stroke-linecap:square;stroke-linejoin:miter;stroke-width:0.8;"/>
   </g>
   <g id="patch_6">
    <path d="M 57.6 41.472 
L 414.72 41.472 
" style="fill:none;stroke:#000000;stroke-linecap:square;stroke-linejoin:miter;stroke-width:0.8;"/>
   </g>
   <g id="text_16">
    <!-- Simulated Anealling Cost -->
    <g transform="translate(160.8 35.472)scale(0.12 -0.12)">
     <defs>
      <path d="M 53.515625 70.515625 
L 53.515625 60.890625 
Q 47.90625 63.578125 42.921875 64.890625 
Q 37.9375 66.21875 33.296875 66.21875 
Q 25.25 66.21875 20.875 63.09375 
Q 16.5 59.96875 16.5 54.203125 
Q 16.5 49.359375 19.40625 46.890625 
Q 22.3125 44.4375 30.421875 42.921875 
L 36.375 41.703125 
Q 47.40625 39.59375 52.65625 34.296875 
Q 57.90625 29 57.90625 20.125 
Q 57.90625 9.515625 50.796875 4.046875 
Q 43.703125 -1.421875 29.984375 -1.421875 
Q 24.8125 -1.421875 18.96875 -0.25 
Q 13.140625 0.921875 6.890625 3.21875 
L 6.890625 13.375 
Q 12.890625 10.015625 18.65625 8.296875 
Q 24.421875 6.59375 29.984375 6.59375 
Q 38.421875 6.59375 43.015625 9.90625 
Q 47.609375 13.234375 47.609375 19.390625 
Q 47.609375 24.75 44.3125 27.78125 
Q 41.015625 30.8125 33.5 32.328125 
L 27.484375 33.5 
Q 16.453125 35.6875 11.515625 40.375 
Q 6.59375 45.0625 6.59375 53.421875 
Q 6.59375 63.09375 13.40625 68.65625 
Q 20.21875 74.21875 32.171875 74.21875 
Q 37.3125 74.21875 42.625 73.28125 
Q 47.953125 72.359375 53.515625 70.515625 
z
" id="DejaVuSans-83"/>
      <path d="M 9.421875 54.6875 
L 18.40625 54.6875 
L 18.40625 0 
L 9.421875 0 
z
M 9.421875 75.984375 
L 18.40625 75.984375 
L 18.40625 64.59375 
L 9.421875 64.59375 
z
" id="DejaVuSans-105"/>
      <path d="M 56.203125 29.59375 
L 56.203125 25.203125 
L 14.890625 25.203125 
Q 15.484375 15.921875 20.484375 11.0625 
Q 25.484375 6.203125 34.421875 6.203125 
Q 39.59375 6.203125 44.453125 7.46875 
Q 49.3125 8.734375 54.109375 11.28125 
L 54.109375 2.78125 
Q 49.265625 0.734375 44.1875 -0.34375 
Q 39.109375 -1.421875 33.890625 -1.421875 
Q 20.796875 -1.421875 13.15625 6.1875 
Q 5.515625 13.8125 5.515625 26.8125 
Q 5.515625 40.234375 12.765625 48.109375 
Q 20.015625 56 32.328125 56 
Q 43.359375 56 49.78125 48.890625 
Q 56.203125 41.796875 56.203125 29.59375 
z
M 47.21875 32.234375 
Q 47.125 39.59375 43.09375 43.984375 
Q 39.0625 48.390625 32.421875 48.390625 
Q 24.90625 48.390625 20.390625 44.140625 
Q 15.875 39.890625 15.1875 32.171875 
z
" id="DejaVuSans-101"/>
      <path d="M 45.40625 46.390625 
L 45.40625 75.984375 
L 54.390625 75.984375 
L 54.390625 0 
L 45.40625 0 
L 45.40625 8.203125 
Q 42.578125 3.328125 38.25 0.953125 
Q 33.9375 -1.421875 27.875 -1.421875 
Q 17.96875 -1.421875 11.734375 6.484375 
Q 5.515625 14.40625 5.515625 27.296875 
Q 5.515625 40.1875 11.734375 48.09375 
Q 17.96875 56 27.875 56 
Q 33.9375 56 38.25 53.625 
Q 42.578125 51.265625 45.40625 46.390625 
z
M 14.796875 27.296875 
Q 14.796875 17.390625 18.875 11.75 
Q 22.953125 6.109375 30.078125 6.109375 
Q 37.203125 6.109375 41.296875 11.75 
Q 45.40625 17.390625 45.40625 27.296875 
Q 45.40625 37.203125 41.296875 42.84375 
Q 37.203125 48.484375 30.078125 48.484375 
Q 22.953125 48.484375 18.875 42.84375 
Q 14.796875 37.203125 14.796875 27.296875 
z
" id="DejaVuSans-100"/>
      <path d="M 34.1875 63.1875 
L 20.796875 26.90625 
L 47.609375 26.90625 
z
M 28.609375 72.90625 
L 39.796875 72.90625 
L 67.578125 0 
L 57.328125 0 
L 50.6875 18.703125 
L 17.828125 18.703125 
L 11.1875 0 
L 0.78125 0 
z
" id="DejaVuSans-65"/>
      <path d="M 45.40625 27.984375 
Q 45.40625 37.75 41.375 43.109375 
Q 37.359375 48.484375 30.078125 48.484375 
Q 22.859375 48.484375 18.828125 43.109375 
Q 14.796875 37.75 14.796875 27.984375 
Q 14.796875 18.265625 18.828125 12.890625 
Q 22.859375 7.515625 30.078125 7.515625 
Q 37.359375 7.515625 41.375 12.890625 
Q 45.40625 18.265625 45.40625 27.984375 
z
M 54.390625 6.78125 
Q 54.390625 -7.171875 48.1875 -13.984375 
Q 42 -20.796875 29.203125 -20.796875 
Q 24.46875 -20.796875 20.265625 -20.09375 
Q 16.0625 -19.390625 12.109375 -17.921875 
L 12.109375 -9.1875 
Q 16.0625 -11.328125 19.921875 -12.34375 
Q 23.78125 -13.375 27.78125 -13.375 
Q 36.625 -13.375 41.015625 -8.765625 
Q 45.40625 -4.15625 45.40625 5.171875 
L 45.40625 9.625 
Q 42.625 4.78125 38.28125 2.390625 
Q 33.9375 0 27.875 0 
Q 17.828125 0 11.671875 7.65625 
Q 5.515625 15.328125 5.515625 27.984375 
Q 5.515625 40.671875 11.671875 48.328125 
Q 17.828125 56 27.875 56 
Q 33.9375 56 38.28125 53.609375 
Q 42.625 51.21875 45.40625 46.390625 
L 45.40625 54.6875 
L 54.390625 54.6875 
z
" id="DejaVuSans-103"/>
      <path d="M 64.40625 67.28125 
L 64.40625 56.890625 
Q 59.421875 61.53125 53.78125 63.8125 
Q 48.140625 66.109375 41.796875 66.109375 
Q 29.296875 66.109375 22.65625 58.46875 
Q 16.015625 50.828125 16.015625 36.375 
Q 16.015625 21.96875 22.65625 14.328125 
Q 29.296875 6.6875 41.796875 6.6875 
Q 48.140625 6.6875 53.78125 8.984375 
Q 59.421875 11.28125 64.40625 15.921875 
L 64.40625 5.609375 
Q 59.234375 2.09375 53.4375 0.328125 
Q 47.65625 -1.421875 41.21875 -1.421875 
Q 24.65625 -1.421875 15.125 8.703125 
Q 5.609375 18.84375 5.609375 36.375 
Q 5.609375 53.953125 15.125 64.078125 
Q 24.65625 74.21875 41.21875 74.21875 
Q 47.75 74.21875 53.53125 72.484375 
Q 59.328125 70.75 64.40625 67.28125 
z
" id="DejaVuSans-67"/>
     </defs>
     <use xlink:href="#DejaVuSans-83"/>
     <use x="63.476562" xlink:href="#DejaVuSans-105"/>
     <use x="91.259766" xlink:href="#DejaVuSans-109"/>
     <use x="188.671875" xlink:href="#DejaVuSans-117"/>
     <use x="252.050781" xlink:href="#DejaVuSans-108"/>
     <use x="279.833984" xlink:href="#DejaVuSans-97"/>
     <use x="341.113281" xlink:href="#DejaVuSans-116"/>
     <use x="380.322266" xlink:href="#DejaVuSans-101"/>
     <use x="441.845703" xlink:href="#DejaVuSans-100"/>
     <use x="505.322266" xlink:href="#DejaVuSans-32"/>
     <use x="537.109375" xlink:href="#DejaVuSans-65"/>
     <use x="605.517578" xlink:href="#DejaVuSans-110"/>
     <use x="668.896484" xlink:href="#DejaVuSans-101"/>
     <use x="730.419922" xlink:href="#DejaVuSans-97"/>
     <use x="791.699219" xlink:href="#DejaVuSans-108"/>
     <use x="819.482422" xlink:href="#DejaVuSans-108"/>
     <use x="847.265625" xlink:href="#DejaVuSans-105"/>
     <use x="875.048828" xlink:href="#DejaVuSans-110"/>
     <use x="938.427734" xlink:href="#DejaVuSans-103"/>
     <use x="1001.904297" xlink:href="#DejaVuSans-32"/>
     <use x="1033.691406" xlink:href="#DejaVuSans-67"/>
     <use x="1103.515625" xlink:href="#DejaVuSans-111"/>
     <use x="1164.697266" xlink:href="#DejaVuSans-115"/>
     <use x="1216.796875" xlink:href="#DejaVuSans-116"/>
    </g>
   </g>
  </g>
 </g>
 <defs>
  <clipPath id="p620aeb616c">
   <rect height="266.112" width="357.12" x="57.6" y="41.472"/>
  </clipPath>
 </defs>
</svg>
